<svg width="14" height="15" viewBox="0 0 14 15" fill="none" xmlns="http://www.w3.org/2000/svg">
    <g clip-path="url(#clip0_87_389)">
        <path d="M6.9999 14.0503C7.2799 13.7703 7.5599 13.4903 7.8399 13.2103C8.49323 12.5258 9.08434 11.8258 9.61323 11.1103C10.391 10.0836 10.9977 9.13474 11.4332 8.26363C11.9932 7.14363 12.2732 6.14807 12.2732 5.27696C12.2732 4.34363 12.0321 3.47252 11.5499 2.66363C11.0677 1.85474 10.4299 1.21696 9.63656 0.750293C8.84323 0.283627 7.96434 0.050293 6.9999 0.050293C6.03545 0.050293 5.15656 0.283627 4.36323 0.750293C3.5699 1.21696 2.93212 1.85474 2.4499 2.66363C1.96767 3.47252 1.72656 4.34363 1.72656 5.27696C1.72656 6.14807 2.00656 7.14363 2.56656 8.26363C3.00212 9.13474 3.60878 10.0836 4.38656 11.1103C4.91545 11.8258 5.50656 12.5258 6.1599 13.2103L6.9999 14.0503ZM6.9999 7.93696C6.28434 7.93696 5.6699 7.68029 5.15656 7.16696C4.64323 6.65363 4.38656 6.0314 4.38656 5.30029C4.38656 4.56918 4.64323 3.94696 5.15656 3.43363C5.6699 2.92029 6.28434 2.66363 6.9999 2.66363C7.71545 2.66363 8.3299 2.92029 8.84323 3.43363C9.35656 3.94696 9.61323 4.56918 9.61323 5.30029C9.61323 6.0314 9.35656 6.65363 8.84323 7.16696C8.3299 7.68029 7.71545 7.93696 6.9999 7.93696Z" fill="#FA7335"/>
    </g>
    <defs>
        <clipPath id="clip0_87_389">
            <rect width="14" height="14" fill="white" transform="matrix(1 0 0 -1 0 14.0503)"/>
        </clipPath>
    </defs>
</svg>
